<?xml version="1.0" encoding="UTF-8"?>
<!-- Generator: Adobe Illustrator 16.0.4, SVG Export Plug-In . SVG Version: 6.00 Build 0)  -->
<!DOCTYPE svg PUBLIC "-//W3C//DTD SVG 1.1//EN" "http://www.w3.org/Graphics/SVG/1.1/DTD/svg11.dtd">
<svg version="1.1" id="Layer_1" xmlns="http://www.w3.org/2000/svg" xmlns:xlink="http://www.w3.org/1999/xlink" x="0px" y="0px" width="757.223px" height="282px" viewBox="0 0 757.223 282" enable-background="new 0 0 757.223 282" xml:space="preserve">
<g>
	<path fill="#48453C" d="M88.928,0C39.814,0,0,39.819,0,88.925c0,49.106,39.814,88.915,88.93,88.915   c49.108,0,88.925-39.809,88.925-88.915C177.854,39.82,138.038,0,88.928,0z M127.465,127.451c-25.689,5.137-51.383,5.137-77.069,0   c-5.142-25.677-5.142-51.374,0-77.061c25.688-5.135,51.379-5.135,77.069,0C132.598,76.076,132.598,101.774,127.465,127.451z"/>
	<g>
		<path fill="#48453C" d="M244.471,37.455h31.758c14.812,0,27.201,0.995,35.75,11.249c5.412,6.553,6.27,13.957,6.27,19.23    c0,11.96-4.983,22.069-13.104,27.345c-7.548,4.842-17.947,4.842-23.354,4.842h-14.956v40.019h-22.358L244.471,37.455    L244.471,37.455z M266.26,83.742h8.83c7.119,0,20.369,0,20.369-15.667c0-13.957-11.82-13.957-18.091-13.957H266.26V83.742z"/>
		<path fill="#48453C" d="M372.075,37.166l35.749,102.973h-22.221l-7.403-22.216h-40.729l-7.691,22.216h-21.082L345.87,37.166    H372.075z M372.648,101.259l-14.246-43.862l-15.239,43.862H372.648z"/>
		<path fill="#48453C" d="M419.641,37.595l21.221,46.859l21.647-46.859h22.645l-34.748,65.088v37.455H428.61v-37.737l-34.747-64.806    H419.641z"/>
		<path fill="#48453C" d="M581.566,35.032c10.965,0,26.062,2.562,36.177,13.957c10.967,12.538,13.103,28.629,13.103,38.738    c0,14.957-4.559,30.907-12.956,40.313c-11.396,12.812-28.062,14.666-36.604,14.666c-13.525,0-27.062-4.274-36.459-14.101    c-11.25-11.961-12.678-29.056-12.678-38.456C532.145,62.804,544.539,35.032,581.566,35.032z M562.909,118.207    c3.137,4.271,8.401,8.26,18.657,8.26c8.978,0,15.096-3.131,19.226-9.543c3.425-5.125,6.979-13.102,6.979-29.479    c0-4.98-0.429-12.105-2.562-18.375c-4.272-12.673-12.961-18.23-23.497-18.23c-8.268,0-14.814,3.424-18.942,8.693    c-5.843,7.119-7.553,18.23-7.553,29.907C555.219,99.264,556.789,110.23,562.909,118.207z"/>
		<path fill="#48453C" d="M647.223,37.166h31.9l38.602,81.041V37.166h20.51v102.973h-30.342L668.015,54.69v85.449h-20.792V37.166z"/>
	</g>
	<path fill="#48453C" d="M506.956,101.421c-7.351,1.465-14.692,1.465-22.044,0c-1.472-7.352-1.472-14.702,0-22.05   c7.352-1.466,14.693-1.466,22.044,0C508.427,86.721,508.427,94.07,506.956,101.421z"/>
</g>
</svg>